<svg width="110" height="30" fill="none" xmlns="http://www.w3.org/2000/svg"><path fill-rule="evenodd" clip-rule="evenodd" d="M17.492 22.164h-4.758c-7.424 0-2.03-15.09 4.22-15.09h7.518c1.205 0 3.33.213 4.378-2.641L30.468 0h-10.31c-5.584 0-9.93 1.882-13.071 5.04-5.425 5.404-7.265 13.845-5.964 17.883 1.237 3.735 4.6 6.194 9.866 6.255l4.092.03h5.044l1.238-3.552c.92-2.52-1.142-3.492-3.87-3.492zm57.929-6.254l1.554-4.828H60.383c-2.76 0-3.997.729-4.473 2.247l-1.554 4.827h16.592c2.76 0 3.997-.728 4.473-2.246zm-23.54 8.5l-1.554 4.828h16.592c2.728 0 3.997-.728 4.473-2.246l1.554-4.828H56.355c-2.729 0-3.966.729-4.474 2.247zm27.41-19.552L80.846.03H64.254c-2.76 0-3.998.729-4.473 2.247l-1.555 4.828h16.592c2.728 0 3.965-.729 4.473-2.247zm-25.062.971C53.53 1.336 51.025.03 44.934.03H33.83l-6.47 18.126h4.092c2.443 0 3.68.03 4.98-3.31l2.697-7.772h4.124c3.522 0 2.729 4.22.952 8.32-1.586 3.612-4.346 6.8-7.677 6.8h-6.884c-2.76 0-4.03.73-4.537 2.247l-1.713 4.828h5.044l4.95-.03c4.377-.031 7.962-.335 12.15-3.948 4.44-3.856 9.58-13.754 8.692-19.462zM110 0h-9.612l-9.042 9.2c-1.047 1.062-2.125 2.125-3.172 3.37h-.095L92.583 0h-7.835L74.183 29.238h7.836l3.363-9.2 3.49-2.823 2.76 8.32c.856 2.58 1.744 3.703 3.648 3.703h5.996l-6.155-16.334L110 0z" fill="#3CC860"/></svg>