<svg width="112" height="78" fill="none" xmlns="http://www.w3.org/2000/svg"><path d="M18.056 72.364c-5.062-2.795-9.082-6.913-12.06-12.208C3.168 54.861 1.68 48.39 1.68 41.036c0-7.355 1.489-13.826 4.317-19.121 2.83-5.295 6.849-9.413 12.06-12.208 5.062-2.794 11.017-4.265 17.419-4.265 6.55 0 12.357 1.47 17.419 4.265 5.062 2.795 9.082 6.913 12.06 12.208 2.828 5.295 4.317 11.767 4.317 19.12 0 7.355-1.489 13.826-4.318 19.121-2.828 5.295-6.848 9.413-12.059 12.208-5.062 2.794-10.868 4.118-17.42 4.118-6.55 0-12.356-1.324-17.418-4.118zM46.79 57.656c2.68-3.677 4.169-9.12 4.169-16.767 0-7.502-1.34-13.09-4.17-16.768-2.679-3.53-6.55-5.442-11.314-5.442s-8.486 1.765-11.166 5.442c-2.68 3.677-4.169 9.12-4.169 16.768 0 7.5 1.34 13.09 4.169 16.767 2.68 3.677 6.55 5.442 11.166 5.442 4.764 0 8.635-1.765 11.315-5.442zm61.041-51.037v68.834H89.519V19.268H73.737V6.618h34.094z" fill="#008237" stroke="#008D36" stroke-width="1.5" stroke-miterlimit="10"/></svg>