<svg width="137" height="73" fill="none" xmlns="http://www.w3.org/2000/svg"><path d="M17.182 68.614C12.058 65.75 7.99 61.526 4.974 56.098 2.111 50.668.604 44.034.604 36.494c0-7.54 1.507-14.176 4.37-19.604 2.864-5.43 6.933-9.652 12.208-12.517C22.306 1.508 28.184 0 34.816 0c6.631 0 12.509 1.508 17.633 4.373 5.125 2.865 9.194 7.088 12.208 12.517 2.864 5.428 4.37 12.064 4.37 19.604 0 7.54-1.506 14.175-4.37 19.604-2.863 5.428-6.933 9.65-12.208 12.516-5.275 2.865-11.153 4.373-17.633 4.373-6.632 0-12.51-1.508-17.634-4.373zm29.088-15.08c2.713-3.62 4.22-9.35 4.22-17.191 0-7.842-1.357-13.421-4.22-17.191-2.713-3.62-6.632-5.58-11.454-5.58-4.823 0-8.591 1.81-11.304 5.58-2.713 3.77-4.22 9.35-4.22 17.19 0 7.843 1.356 13.422 4.22 17.192 2.713 3.77 6.631 5.58 11.304 5.58 4.822 0 8.741-1.81 11.454-5.58zM137 58.51v13.271H76.564V61.225l30.896-25.636c3.316-2.714 5.426-5.127 6.631-7.088 1.206-1.96 1.658-3.92 1.658-5.88 0-2.866-1.055-4.977-3.315-6.485-2.11-1.508-5.275-2.262-9.495-2.262-3.467 0-6.632.603-9.495 1.81-2.864 1.206-5.125 2.865-7.084 5.277l-13.414-7.69c3.165-4.072 7.385-7.239 12.962-9.652C91.333 1.357 97.663.151 104.747.151c5.878 0 11.153.905 15.524 2.563 4.521 1.66 7.988 4.072 10.399 7.239 2.411 3.167 3.768 6.786 3.768 11.008 0 3.77-.904 7.39-2.713 10.707-1.809 3.318-5.426 7.239-10.55 11.461l-18.387 15.382H137z" fill="#008237"/></svg>