<svg width="136" height="73" fill="none" xmlns="http://www.w3.org/2000/svg"><path d="M16.91 68.478c-5.139-2.86-9.22-7.073-12.242-12.491C1.797 50.569.285 43.947.285 36.42c0-7.525 1.512-14.147 4.383-19.565 2.871-5.417 6.952-9.631 12.242-12.49C22.2 1.505 28.093 0 34.742 0c6.65 0 12.544 1.505 17.682 4.365 5.139 2.86 9.219 7.073 12.242 12.491 2.871 5.418 4.382 12.04 4.382 19.565 0 7.526-1.51 14.148-4.382 19.566-2.872 5.418-6.952 9.632-12.242 12.491-5.138 2.86-11.184 4.365-17.682 4.365-6.65 0-12.544-1.505-17.834-4.365zm29.319-15.05c2.72-3.612 4.231-9.331 4.231-17.007 0-7.675-1.36-13.394-4.231-17.157-2.72-3.612-6.65-5.568-11.486-5.568s-8.615 1.806-11.335 5.568c-2.72 3.763-4.232 9.331-4.232 17.157 0 7.676 1.36 13.395 4.232 17.158 2.72 3.762 6.65 5.568 11.335 5.568 4.836-.15 8.614-1.956 11.486-5.719zm84.179-16.706C134.186 40.334 136 44.7 136 50.117c0 4.064-1.209 7.826-3.627 11.288-2.418 3.461-6.196 6.17-11.184 8.277-4.987 2.107-11.183 3.16-18.438 3.16-5.591 0-11.183-.601-16.624-1.956-5.44-1.354-10.126-3.16-13.904-5.568l7.254-12.492c3.023 1.957 6.65 3.612 10.58 4.666 4.08 1.053 8.16 1.655 12.241 1.655 4.685 0 8.312-.752 11.032-2.408 2.721-1.505 4.081-3.762 4.081-6.622 0-5.719-4.987-8.578-14.962-8.578h-8.463V30.702l16.473-16.404H76.153V1.204h56.069V11.74L114.086 29.8c7.103 1.054 12.544 3.312 16.322 6.923z" fill="#008237"/></svg>