<svg width="147" height="74" fill="none" xmlns="http://www.w3.org/2000/svg"><path d="M16.527 68.7c-4.979-2.868-8.933-7.096-11.862-12.532C1.883 50.733.418 44.09.418 36.54c0-7.55 1.465-14.194 4.247-19.63 2.783-5.435 6.737-9.662 11.862-12.531C21.507 1.509 27.364 0 33.661 0c6.443 0 12.154 1.51 17.133 4.379 4.98 2.869 8.933 7.096 11.862 12.532 2.783 5.435 4.247 12.08 4.247 19.629 0 7.549-1.464 14.193-4.247 19.628-2.782 5.436-6.736 9.664-11.861 12.532-5.126 2.87-10.837 4.38-17.134 4.38-6.297 0-12.009-1.51-17.134-4.38zm28.41-15.099c2.636-3.623 4.1-9.361 4.1-17.212 0-7.852-1.318-13.439-4.1-17.213-2.636-3.624-6.444-5.587-11.13-5.587-4.686 0-8.347 1.812-10.983 5.587-2.636 3.775-4.1 9.361-4.1 17.213 0 7.851 1.318 13.438 4.1 17.212 2.636 3.775 6.443 5.587 10.983 5.587 4.686 0 8.347-1.812 11.13-5.587zm101.777 3.473H134.12v14.797h-17.573V57.074H74.665V46.052l36.61-44.844h18.891L96.192 43.636h20.794V30.35h16.988v13.287h12.594v13.438h.146z" fill="#008237"/></svg>