<svg width="143" height="76" fill="none" xmlns="http://www.w3.org/2000/svg"><path d="M17.782 70.83c-5.295-2.959-9.5-7.317-12.615-12.921C2.207 52.305.65 45.455.65 37.672c0-7.784 1.558-14.633 4.517-20.237 2.96-5.604 7.164-9.963 12.615-12.92C23.078 1.556 29.152 0 36.004 0c6.853 0 12.927 1.557 18.222 4.514 5.296 2.958 9.5 7.317 12.615 12.92 2.96 5.605 4.517 12.454 4.517 20.238 0 7.783-1.557 14.633-4.517 20.237-2.959 5.604-7.164 9.962-12.615 12.92-5.45 2.958-11.525 4.515-18.222 4.515-6.852 0-12.926-1.557-18.222-4.515zm30.059-15.568c2.803-3.736 4.36-9.651 4.36-17.746 0-8.095-1.401-13.854-4.36-17.746-2.804-3.736-6.853-5.76-11.837-5.76s-8.877 1.868-11.68 5.76c-2.804 3.892-4.361 9.651-4.361 17.746 0 8.095 1.401 13.855 4.36 17.746 2.804 3.892 6.853 5.76 11.681 5.76 4.984 0 9.033-1.868 11.837-5.76zm86.749-20.548c5.607 4.047 8.254 9.496 8.254 16.5 0 4.515-1.246 8.407-3.738 12.143-2.491 3.58-6.385 6.538-11.525 8.717-5.139 2.18-11.525 3.27-19 3.27-5.763 0-11.525-.623-17.132-2.024-5.607-1.401-10.435-3.27-14.328-5.76l7.475-12.92c3.115 2.023 6.697 3.736 10.902 4.825 4.05 1.09 8.255 1.713 12.616 1.713 4.828 0 8.565-.779 11.369-2.491 2.803-1.712 4.205-4.047 4.205-7.005 0-3.114-1.402-5.449-4.361-7.005-2.803-1.557-7.787-2.335-14.951-2.335H83.195L87.4 1.4h50.461v13.543h-34.42L102.195 28.8h6.697c11.525-.156 20.247 1.868 25.698 5.915z" fill="#008237"/></svg>