<svg width="73" height="93" fill="none" xmlns="http://www.w3.org/2000/svg"><path d="M36.049 93c-.268 0-.536-.042-.794-.126-10.298-3.36-19.115-9.89-25.498-18.887C3.374 64.991 0 54.34 0 43.185V15.44c0-1.505 1.181-2.725 2.638-2.725 7.618 0 14.545-4.315 18.092-11.262A2.628 2.628 0 0123.063 0h25.971c.979 0 1.877.56 2.334 1.453C54.915 8.4 61.84 12.715 69.444 12.715c1.457 0 2.653 1.22 2.653 2.725v27.745c0 11.154-3.373 21.805-9.756 30.802-6.384 8.997-15.2 15.528-25.498 18.886a2.556 2.556 0 01-.794.127z" fill="#3CC860"/><path d="M69.444 12.715c-7.603 0-14.53-4.315-18.076-11.262A2.628 2.628 0 0049.035 0H36.049v93c.268 0 .536-.042.794-.126 10.297-3.36 19.114-9.89 25.497-18.887 6.384-8.996 9.757-19.648 9.757-30.802V15.44c0-1.505-1.196-2.725-2.653-2.725z" fill="#1D9258"/><path d="M36.049 81.408c-.345 0-.69-.07-1.015-.21C20.16 74.792 10.55 59.871 10.55 43.185V24.6c0-1.177.731-2.221 1.814-2.589 5.598-1.9 10.53-5.397 14.259-10.111.5-.633 1.25-1 2.042-1H43.43c.792 0 1.542.367 2.043 1 3.73 4.714 8.66 8.211 14.259 10.113 1.082.368 1.814 1.412 1.814 2.588v18.585c0 16.686-9.61 31.607-24.483 38.013-.325.14-.67.21-1.015.21z" fill="#FFEBDC"/><path d="M59.733 22.012c-5.599-1.902-10.53-5.399-14.26-10.113-.5-.633-1.25-1-2.042-1H36.05v70.509c.345 0 .69-.07 1.015-.21 14.873-6.406 24.483-21.327 24.483-38.013V24.6c0-1.176-.732-2.22-1.814-2.588z" fill="#F1DDCE"/><path d="M31.946 57.536c-.675 0-1.35-.266-1.865-.798l-8.206-8.477a2.788 2.788 0 010-3.853 2.579 2.579 0 013.73 0l6.34 6.55 14.548-15.026a2.578 2.578 0 013.73 0 2.788 2.788 0 010 3.853L33.812 56.738a2.588 2.588 0 01-1.865.798z" fill="#168D50"/><path d="M46.493 35.932L36.05 46.72v7.706l14.174-14.641a2.789 2.789 0 000-3.853 2.578 2.578 0 00-3.73 0z" fill="#0A7440"/></svg>