<svg width="84" height="80" fill="none" xmlns="http://www.w3.org/2000/svg"><path d="M79.672 51.727H3.984c-2.082 0-3.785-1.759-3.785-3.909v-43c0-2.15 1.703-3.91 3.785-3.91h75.688c2.082 0 3.785 1.76 3.785 3.91v43c0 2.15-1.703 3.91-3.785 3.91z" fill="#1D9258"/><path d="M70.21 36.09c-4.351 0-8.325 2.15-10.596 5.669C57.722 40.782 55.641 40 53.181 40c-6.623 0-12.11 5.082-13.056 11.727h39.547c1.892 0 3.406-1.368 3.784-3.322-.757-6.841-6.433-12.314-13.245-12.314z" fill="#0D8944"/><path d="M72.103 47.818h-60.55c0-4.3-3.407-7.818-7.57-7.818V12.636c4.163 0 7.57-3.518 7.57-7.818h60.55c0 4.3 3.406 7.819 7.569 7.819V40c-4.163 0-7.57 3.518-7.57 7.818z" fill="#3CC860"/><path d="M70.21 36.09c-4.351 0-8.325 2.15-10.595 5.669C57.721 40.782 55.64 40 53.18 40c-5.298 0-9.84 3.127-11.92 7.818h30.842c0-4.3 3.217-7.623 7.38-7.818-2.46-2.346-5.677-3.91-9.272-3.91z" fill="#0E9347"/><path d="M41.828 43.909c8.36 0 15.137-7.876 15.137-17.59 0-9.716-6.777-17.592-15.137-17.592S26.69 16.603 26.69 26.318s6.777 17.59 15.138 17.59zM19.121 30.227c2.09 0 3.785-1.75 3.785-3.909s-1.694-3.91-3.785-3.91c-2.09 0-3.784 1.751-3.784 3.91 0 2.16 1.694 3.91 3.784 3.91zm45.413 0c2.09 0 3.785-1.75 3.785-3.909s-1.695-3.91-3.785-3.91-3.784 1.751-3.784 3.91c0 2.16 1.694 3.91 3.784 3.91z" fill="#0A7440"/><path d="M45.593 30.375v2.8h-3.398v2.438h-4.828v-2.437h-1.922v-2.801h1.922v-1.5h-1.922v-2.8h1.922v-7.641h7.523c1.922 0 3.399.43 4.43 1.289 1.039.851 1.558 2.12 1.558 3.808 0 1.735-.558 3.059-1.675 3.973-1.11.914-2.743 1.371-4.899 1.371h-2.11v1.5h3.4zm-3.398-4.3h1.3c.524 0 .962-.067 1.313-.2.36-.133.645-.309.856-.527.218-.227.375-.485.468-.774a2.775 2.775 0 00.023-1.676 1.782 1.782 0 00-.41-.714c-.187-.22-.449-.395-.785-.528-.328-.133-.746-.199-1.254-.199h-1.511v4.617z" fill="#3CC860"/><path d="M49.397 67.364c7.315 0 13.245-6.126 13.245-13.682S56.712 40 49.397 40C42.08 40 36.15 46.126 36.15 53.682s5.93 13.682 13.245 13.682z" fill="#FFCA5D"/><path d="M66.427 63.455c7.315 0 13.245-6.126 13.245-13.682 0-7.557-5.93-13.682-13.245-13.682-7.316 0-13.246 6.125-13.246 13.682 0 7.556 5.93 13.682 13.246 13.682z" fill="#F6B545"/><path d="M66.427 36.09c-7.38 0-13.246 6.06-13.246 13.683 0 7.622 5.866 13.682 13.246 13.682 7.38 0 13.245-6.06 13.245-13.682 0-7.623-5.866-13.682-13.245-13.682zm0 23.455c-5.299 0-9.461-4.3-9.461-9.772 0-5.473 4.163-9.773 9.46-9.773 5.299 0 9.462 4.3 9.462 9.773 0 5.472-4.163 9.772-9.461 9.772z" fill="#FFCB5B"/><path d="M66.427 63.259c7.38.196 13.245-6.06 13.245-13.486h-.189c-.946 0-1.703.782-1.892 1.759-.378 2.736-1.703 5.277-3.595 7.036-1.514 1.564-3.596 2.541-5.866 2.932-.946 0-1.703.782-1.703 1.759z" fill="#F6B545"/><path d="M66.427 36.286c-7.38-.195-13.246 6.06-13.246 13.487h.19c.945 0 1.703-.782 1.892-1.76.378-2.736 1.703-5.277 3.595-7.036 1.514-1.563 3.595-2.54 5.866-2.932.946 0 1.703-.782 1.703-1.759z" fill="#FFE27A"/><path d="M58.29 51.14c0-5.472 4.163-9.772 9.46-9.772 2.272 0 4.353.782 6.056 2.346C71.914 41.368 69.454 40 66.426 40c-5.298 0-9.46 4.3-9.46 9.773 0 3.127 1.324 5.668 3.405 7.427-1.324-1.564-2.081-3.714-2.081-6.06z" fill="#F19920"/><path d="M72.103 55.832c-.19 0-.378 0-.568-.196a.966.966 0 010-1.368c1.136-1.173 1.703-2.932 1.703-4.495 0-.587.379-.978.946-.978.568 0 .947.391.947.978 0 2.15-.757 4.3-2.082 5.863-.378.196-.757.196-.946.196z" fill="#FFCB5B"/><path d="M66.427 55.636c-1.136 0-1.893-.781-1.893-1.954v-7.818c0-1.173.757-1.955 1.892-1.955 1.136 0 1.893.782 1.893 1.955v7.818c0 1.173-.757 1.954-1.892 1.954z" fill="#F19920"/><path d="M73.428 61.304c-1.325-4.886-4.73-8.795-9.083-10.554-.757-4.495-3.595-8.404-7.19-10.75-2.271 2.54-3.785 5.864-3.785 9.577 0 7.623 5.866 13.682 13.246 13.682 2.46.196 4.73-.586 6.812-1.955z" fill="#F19920"/><path d="M60.371 57.2c-1.324-1.76-2.27-3.91-2.27-6.255 0-2.736 1.135-5.277 3.027-7.036-.378-.586-.757-.977-1.135-1.368-1.892 1.76-3.028 4.3-3.028 7.232 0 3.127 1.325 5.668 3.406 7.427zm4.163-6.254v2.736c0 1.172.757 1.954 1.892 1.954 1.136 0 1.893-.782 1.893-1.954v-.391c-1.136-.977-2.46-1.76-3.785-2.345z" fill="#E78825"/><path d="M73.428 61.304c-.379-1.368-.757-2.54-1.514-3.713-1.514 1.173-3.406 1.954-5.487 1.954-5.299 0-9.461-4.3-9.461-9.772 0-2.932 1.135-5.473 3.027-7.232-.946-.977-1.892-1.76-3.027-2.346-2.271 2.541-3.785 5.864-3.785 9.578 0 7.622 5.866 13.681 13.246 13.681 2.649 0 4.92-.781 7-2.15z" fill="#F6B545"/><path d="M72.86 59.545c-1.324.978-3.027 1.564-4.73 1.955-.946.195-1.703.977-1.703 1.954 2.649 0 4.92-.782 7.001-2.15l-.568-1.759z" fill="#F19920"/><path d="M56.966 40.196c-2.271 2.54-3.785 5.863-3.785 9.577h.19c.945 0 1.703-.782 1.892-1.76.378-2.736 1.703-5.081 3.406-6.84-.568-.196-1.136-.587-1.703-.977z" fill="#FFCB5B"/><path d="M49.397 67.364c7.315 0 13.245-6.126 13.245-13.682S56.712 40 49.397 40C42.08 40 36.15 46.126 36.15 53.682s5.93 13.682 13.245 13.682z" fill="#F6B545"/><path d="M47.504 63.454c0 1.369.19 2.541.568 3.91h1.325c7.38 0 13.245-6.06 13.245-13.682 0-1.369-.19-2.541-.568-3.91H60.75c-7.38 0-13.246 6.06-13.246 13.682z" fill="#F19920"/><path d="M49.397 40c-7.38 0-13.246 6.06-13.246 13.682 0 7.623 5.866 13.682 13.245 13.682 7.38 0 13.246-6.06 13.246-13.682C62.642 46.059 56.776 40 49.397 40zm0 23.455c-5.299 0-9.462-4.3-9.462-9.773s4.163-9.773 9.462-9.773c5.298 0 9.46 4.3 9.46 9.773 0 5.472-4.162 9.773-9.46 9.773z" fill="#FFCB5B"/><path d="M49.397 67.168c7.38.196 13.245-6.059 13.245-13.486h-.189c-.946 0-1.703.782-1.892 1.759-.378 2.736-1.703 5.277-3.595 7.036-1.514 1.564-3.595 2.541-5.866 2.932-.946 0-1.703.782-1.703 1.76z" fill="#F6B545"/><path d="M49.396 40.195c-7.38-.195-13.245 6.06-13.245 13.487h.19c.945 0 1.702-.782 1.891-1.76.379-2.736 1.703-5.277 3.596-7.036 1.513-1.563 3.595-2.54 5.865-2.932.947 0 1.703-.781 1.703-1.759z" fill="#FFE27A"/><path d="M41.26 55.05c0-5.473 4.163-9.773 9.461-9.773 2.271 0 4.353.782 6.055 2.346-1.892-2.346-4.352-3.714-7.38-3.714-5.298 0-9.46 4.3-9.46 9.773 0 3.127 1.324 5.668 3.406 7.427-1.325-1.564-2.082-3.714-2.082-6.059z" fill="#F19920"/><path d="M55.073 59.741c-.19 0-.378 0-.568-.196a.966.966 0 010-1.368c1.136-1.172 1.703-2.931 1.703-4.495 0-.587.379-.977.947-.977.567 0 .946.39.946.977 0 2.15-.757 4.3-2.082 5.863-.378.196-.757.196-.946.196z" fill="#FFCB5B"/><path d="M49.397 59.545c-1.136 0-1.893-.782-1.893-1.954v-7.818c0-1.173.757-1.955 1.893-1.955 1.135 0 1.892.782 1.892 1.955v7.818c0 1.172-.757 1.954-1.892 1.954z" fill="#F19920"/><path d="M58.101 49.968c.379 1.173.757 2.345.757 3.714 0 5.472-4.163 9.772-9.46 9.772-.569 0-1.325 0-1.893-.195v.195c0 1.369.19 2.541.568 3.91h1.324c7.38 0 13.246-6.06 13.246-13.682 0-1.369-.19-2.541-.568-3.91H60.75c-.946 0-1.703 0-2.649.196z" fill="#F6B545"/><path d="M58.858 79.09c7.315 0 13.245-6.125 13.245-13.681 0-7.556-5.93-13.682-13.245-13.682-7.316 0-13.246 6.126-13.246 13.682s5.93 13.682 13.246 13.682z" fill="#F6B545"/><path d="M58.858 51.727c-7.38 0-13.246 6.06-13.246 13.682 0 7.623 5.866 13.682 13.246 13.682 7.38 0 13.245-6.06 13.245-13.682 0-7.623-5.865-13.682-13.245-13.682zm0 23.455c-5.298 0-9.461-4.3-9.461-9.773s4.163-9.773 9.46-9.773c5.3 0 9.462 4.3 9.462 9.773s-4.163 9.773-9.461 9.773z" fill="#FFCB5B"/><path d="M58.857 78.895c7.38.196 13.246-6.059 13.246-13.486h-.19c-.945 0-1.702.782-1.891 1.76-.379 2.736-1.704 5.276-3.596 7.036-1.513 1.563-3.595 2.54-5.866 2.931-.946 0-1.703.782-1.703 1.76z" fill="#F6B545"/><path d="M58.858 51.923c-7.38-.196-13.246 6.059-13.246 13.486h.19c.946 0 1.703-.782 1.892-1.759.378-2.736 1.703-5.277 3.595-7.036 1.514-1.564 3.595-2.541 5.866-2.932.946 0 1.703-.782 1.703-1.76z" fill="#FFE27A"/><path d="M50.722 66.777c0-5.473 4.163-9.773 9.46-9.773 2.271 0 4.353.782 6.056 2.346-1.892-2.346-4.352-3.714-7.38-3.714-5.298 0-9.461 4.3-9.461 9.773 0 3.127 1.324 5.668 3.406 7.427-1.325-1.563-2.081-3.713-2.081-6.059z" fill="#F19920"/><path d="M64.535 71.468c-.19 0-.379 0-.568-.196a.966.966 0 010-1.368c1.135-1.172 1.703-2.931 1.703-4.495 0-.587.378-.977.946-.977s.946.39.946.977c0 2.15-.757 4.3-2.081 5.863-.379.196-.757.196-.946.196z" fill="#FFCB5B"/><path d="M58.858 71.273c-1.136 0-1.893-.782-1.893-1.955V61.5c0-1.173.757-1.955 1.892-1.955 1.136 0 1.893.782 1.893 1.955v7.818c0 1.173-.757 1.955-1.892 1.955z" fill="#F19920"/></svg>