<svg width="83" height="84" fill="none" xmlns="http://www.w3.org/2000/svg"><path d="M67.532 75.496A36.457 36.457 0 0144.147 84c-9.73 0-18.877-3.79-25.757-10.669-6.88-6.88-10.67-16.027-10.67-25.757s3.79-18.877 10.67-25.756c6.88-6.88 16.027-10.67 25.757-10.67 7.963 0 15.531 2.53 21.885 7.315a2.168 2.168 0 01-1.27 3.9C51.385 22.567 40.504 33.62 40.504 47c0 13.588 11.055 24.642 24.642 24.642.23 0 .477-.004.756-.013a2.1 2.1 0 01.53.05l.154.034a2.168 2.168 0 01.945 3.783z" fill="#D9CC3D"/><path d="M33.247 12.802c-5.547 1.731-10.63 4.79-14.857 9.016-6.88 6.88-10.67 16.027-10.67 25.756 0 9.73 3.79 18.877 10.669 25.757 4.226 4.227 9.31 7.284 14.857 9.016V12.802z" fill="#F0E45A"/><path d="M28.756 46.49a2.168 2.168 0 00-2.707-1.44 4.462 4.462 0 01-3.837-.584l-.217-.148a2.168 2.168 0 10-2.443 3.582l.216.147a8.782 8.782 0 007.549 1.15 2.168 2.168 0 001.44-2.707z" fill="#73788C"/><path d="M48.381 62.057a2.168 2.168 0 00-3.066 0c-3.9 3.9-8.67 1.284-8.89 1.16a2.168 2.168 0 00-2.173 3.752c.201.117 2.04 1.154 4.636 1.471.502.062.997.092 1.486.092 3.016 0 5.761-1.163 8.007-3.409a2.168 2.168 0 000-3.066z" fill="#414B50"/><path d="M66.032 18.463c-6.354-4.785-13.922-7.314-21.885-7.314-1.12 0-2.232.052-3.334.152a36.075 36.075 0 00-15.387 5.01 36.678 36.678 0 00-7.036 5.506 36.806 36.806 0 00-4.575 5.569l28.057 11.562a24.723 24.723 0 013.823-7.012 25.018 25.018 0 016.214-5.68 24.4 24.4 0 0112.852-3.894 2.168 2.168 0 001.271-3.899z" fill="#F1DDCE"/><path d="M66.14 10C61.65 10 58 13.651 58 18.14c0 4.488 3.651 8.139 8.14 8.139 4.487 0 8.139-3.651 8.139-8.14 0-4.488-3.651-8.139-8.14-8.139z" fill="#13633C"/><path d="M66.14 10C61.65 10 58 13.651 58 18.14c0 4.488 3.651 8.139 8.14 8.139V10z" fill="#1D9258"/><path d="M41.654 36.514l-26.302-10.84a2.168 2.168 0 00-1.652 4.01l26.302 10.839a2.169 2.169 0 001.652-4.009zm10.255-10.258L40.813 11.3a36.099 36.099 0 00-14.187 4.32l19.07 16.315a25.018 25.018 0 016.213-5.68z" fill="#0A7440"/><path d="M33.247 64.55a2.167 2.167 0 000 1.097V64.55z" fill="#D69110"/><path d="M33.247 12.804a35.933 35.933 0 00-7.822 3.507 36.674 36.674 0 00-7.036 5.507 36.812 36.812 0 00-4.575 5.568l19.432 8.008v-22.59z" fill="#FFEBDC"/><path d="M33.247 33.05l-17.895-7.376a2.168 2.168 0 00-1.652 4.01l19.547 8.055v-4.69zm0-20.247a35.931 35.931 0 00-6.621 2.817l6.621 5.665v-8.482z" fill="#168D50"/></svg>