<svg width="65" height="77" fill="none" xmlns="http://www.w3.org/2000/svg"><path d="M.19.316h64.62v76.368H.19V.316z" fill="#E2AE83"/><path d="M32.5 12.065h26.436v17.42H32.5v-17.42zm-6.418 1.162H6.066a1.162 1.162 0 010-2.324h20.016a1.162 1.162 0 010 2.324zm-.002 8.811H6.063a1.162 1.162 0 110-2.324H26.08a1.162 1.162 0 010 2.324zm0 8.812H6.063a1.162 1.162 0 110-2.324H26.08a1.162 1.162 0 110 2.324zm32.856 8.812H6.066a1.162 1.162 0 110-2.324h52.869a1.162 1.162 0 010 2.324zm0 8.812H6.066a1.162 1.162 0 010-2.324h52.869a1.162 1.162 0 110 2.324zm0 8.811H6.066a1.162 1.162 0 110-2.324h52.869a1.162 1.162 0 110 2.324zm0 8.812H6.066a1.162 1.162 0 110-2.324h52.869a1.162 1.162 0 010 2.324z" fill="#1D9258"/></svg>