<svg width="84" height="86" fill="none" xmlns="http://www.w3.org/2000/svg"><path d="M74.719 44.618a2.436 2.436 0 01-2.261-1.575c-.505-1.29.098-2.758 1.346-3.28 2.78-1.163 4.575-3.914 4.575-7.011 0-1.393 1.091-2.52 2.44-2.52 1.347 0 2.438 1.127 2.438 2.52 0 5.159-2.991 9.745-7.624 11.681-.3.126-.61.185-.914.185z" fill="#F0E45A"/><path d="M78.379 50.387c0 10.883-5.724 21.146-14.796 26.537v6.55c0 1.411-1.074 2.52-2.44 2.52h-9.756a2.252 2.252 0 01-1.706-.756l-4.196-4.282h-7.707l-4.196 4.282a2.253 2.253 0 01-1.706.756h-9.757c-1.366 0-2.439-1.109-2.439-2.52v-6.55c-4.438-2.67-8.308-6.836-10.894-11.421H2.445c-1.366 0-2.44-1.108-2.44-2.519V47.867c0-1.41 1.074-2.518 2.44-2.518h2.829c.586-3.578 1.805-7.055 3.61-10.179l-7.805-5.34a2.796 2.796 0 01-1.073-1.866c-.049-.755.195-1.511.732-2.015 6-6.197 15.235-7.608 22.65-3.628a30.756 30.756 0 014.146-1.36H55.73c13.218 3.225 22.649 15.368 22.649 29.426z" fill="#3CC860"/><path d="M78.38 50.387c0 10.883-5.724 21.146-14.797 26.537v6.55c0 1.411-1.073 2.52-2.439 2.52h-9.756a2.252 2.252 0 01-1.707-.756l-4.195-4.282h-3.854V20.96H55.73c13.219 3.225 22.65 15.368 22.65 29.426z" fill="#009E45"/><path d="M41.632 0c-9.415 0-17.073 7.91-17.073 17.636 0 9.724 7.658 17.635 17.073 17.635s17.073-7.911 17.073-17.636S51.046 0 41.632 0z" fill="#F0E45A"/><path d="M58.705 17.636c0 9.724-7.658 17.635-17.073 17.635V0c9.414 0 17.073 7.91 17.073 17.636z" fill="#D9CC3D"/><path d="M41.631 5.038c-6.731 0-12.195 5.644-12.195 12.597 0 6.953 5.464 12.597 12.195 12.597 6.732 0 12.196-5.644 12.196-12.597 0-6.953-5.464-12.597-12.196-12.597z" fill="#fff"/><path d="M53.827 17.635c0 6.953-5.463 12.597-12.195 12.597V5.038c6.732 0 12.195 5.644 12.195 12.597z" fill="#F7F7F7"/><path d="M24.558 47.867c0 1.392-1.092 2.52-2.438 2.52-1.347 0-2.44-1.128-2.44-2.52 0-1.39 1.093-2.518 2.44-2.518 1.346 0 2.438 1.128 2.438 2.519z" fill="#F0E45A"/><path d="M48.949 17.636c0 1.41-1.073 2.518-2.439 2.518h-4.878c-1.366 0-2.439-1.108-2.439-2.518v-5.04c0-1.41 1.073-2.518 2.439-2.518s2.44 1.108 2.44 2.519v2.52h2.438c1.366 0 2.439 1.107 2.439 2.519z" fill="#7C8388"/><path d="M48.949 17.636c0 1.41-1.073 2.518-2.439 2.518h-4.878V10.078c1.366 0 2.439 1.108 2.439 2.519v2.52h2.44c1.365 0 2.438 1.107 2.438 2.519z" fill="#575F64"/><path d="M58.705 32.752c0 1.41-1.073 2.519-2.439 2.519H26.998c-1.367 0-2.44-1.109-2.44-2.52 0-1.41 1.073-2.52 2.44-2.52h29.268c1.366 0 2.439 1.11 2.439 2.52z" fill="#6D6D6D"/><path d="M58.705 32.752c0 1.41-1.073 2.519-2.439 2.519H41.632v-5.04h14.634c1.366 0 2.439 1.11 2.439 2.52z" fill="#32393F"/></svg>