<svg width="77" height="79" fill="none" xmlns="http://www.w3.org/2000/svg"><path d="M73.875 33.035l-5.006-20.683a6.968 6.968 0 00-1.752-3.168 6.64 6.64 0 00-3.066-1.81l-20.023-5.17c-2.253-.581-4.662.097-6.32 1.81L1.948 40.952c-2.597 2.682-2.597 7.013 0 9.695l25.029 25.854c2.596 2.682 6.789 2.682 9.385 0l35.76-36.938c1.659-1.713 2.316-4.202 1.753-6.528zm-24.998-5.01c-2.597-2.682-2.597-7.013 0-9.695 2.597-2.682 6.789-2.682 9.386 0 2.597 2.683 2.597 7.013 0 9.695-2.597 2.683-6.79 2.683-9.386 0z" fill="#F0E45A"/><path d="M73.499 39.05L36.56 75.988a6.846 6.846 0 01-9.695 0L13.94 63.061l35.548-35.548a6.846 6.846 0 009.695 0 6.846 6.846 0 000-9.695l9.146-9.146a6.91 6.91 0 011.81 3.167l5.17 20.683a6.885 6.885 0 01-1.81 6.528z" fill="#D9CC3D"/><path d="M26.865 37.208a6.863 6.863 0 010-9.695 6.863 6.863 0 019.695 0 6.863 6.863 0 010 9.695 6.863 6.863 0 01-9.695 0zm6.463-6.463a2.287 2.287 0 00-3.231 0 2.287 2.287 0 000 3.231c.891.892 2.34.892 3.231 0a2.287 2.287 0 000-3.232z" fill="#3CC860"/><path d="M30.097 59.83a6.863 6.863 0 010-9.695 6.863 6.863 0 019.695 0 6.863 6.863 0 010 9.695 6.863 6.863 0 01-9.695 0zm6.463-6.463a2.287 2.287 0 00-3.231 0 2.287 2.287 0 000 3.231c.891.892 2.34.892 3.231 0a2.287 2.287 0 000-3.231z" fill="#1D9258"/><path d="M48.13 44.318l-17.387 1.939-11.699 1.292a2.184 2.184 0 01-1.874-.646 2.333 2.333 0 01-.647-1.357c-.161-1.26.776-2.392 2.004-2.521l17.387-1.939 11.698-1.293c1.261-.161 2.392.776 2.521 2.004.162 1.26-.775 2.391-2.003 2.52z" fill="#3CC860"/><path d="M48.13 44.318l-17.387 1.939 5.17-5.171 11.7-1.293c1.26-.161 2.391.776 2.52 2.004.162 1.26-.775 2.391-2.003 2.52z" fill="#1D9258"/><path d="M76.321 3.91L59.182 21.05a2.263 2.263 0 01-3.231 0 2.263 2.263 0 010-3.232L73.09.678a2.263 2.263 0 013.231 0 2.263 2.263 0 010 3.232z" fill="#3E5959"/><path d="M55.95 21.05L76.32.678a2.263 2.263 0 010 3.231L59.183 21.05a2.263 2.263 0 01-3.232 0z" fill="#384949"/></svg>