<svg width="81" height="77" fill="none" xmlns="http://www.w3.org/2000/svg"><path d="M3.797.531h73.406C79.3.531 81 2.231 81 4.328v68.344c0 2.097-1.7 3.797-3.797 3.797H3.797A3.797 3.797 0 010 72.672V4.328C0 2.231 1.7.531 3.797.531z" fill="#3CC860"/><path d="M3.797 6.858a1.265 1.265 0 100-2.53 1.265 1.265 0 000 2.53zm5.063 0a1.265 1.265 0 100-2.53 1.265 1.265 0 000 2.53zm5.062 0a1.265 1.265 0 100-2.53 1.265 1.265 0 000 2.53z" fill="#0A7440"/><path d="M3.797 10.656h73.406c.699 0 1.266.567 1.266 1.266v60.75c0 .699-.567 1.265-1.266 1.265H3.797a1.266 1.266 0 01-1.266-1.265v-60.75c0-.7.567-1.266 1.266-1.266zm15.187-6.328h58.219a1.266 1.266 0 010 2.531H18.984a1.266 1.266 0 010-2.53z" fill="#fff"/><path d="M15.188 29.64a5.062 5.062 0 100-10.125 5.062 5.062 0 000 10.125z" fill="#ADD8C3"/><path d="M18.984 27.92a1.444 1.444 0 00-.772-1.026l-1.265-.772a1.945 1.945 0 00-.494-.202v-.57a1.899 1.899 0 10-2.531 0v.57a1.945 1.945 0 00-.468.202l-1.266.772c-.404.203-.69.582-.772 1.026a5.062 5.062 0 007.568 0z" fill="#0A7440"/><path d="M21.516 34.703c0 .7-.567 1.266-1.266 1.266h-8.86a1.266 1.266 0 010-2.532h8.86c.699 0 1.266.567 1.266 1.266zm-2.532 5.063c0 .699-.566 1.265-1.265 1.265H11.39a1.266 1.266 0 010-2.531h6.328c.699 0 1.265.567 1.265 1.266z" fill="#0B6B3C"/><path d="M68.344 19.592H29.008a2.531 2.531 0 00-2.43 2.53 2.531 2.531 0 01-2.531 2.532 2.531 2.531 0 012.531 2.531v32.83a2.531 2.531 0 002.531 2.532h39.235a2.531 2.531 0 002.53-2.531V22.123a2.531 2.531 0 00-2.53-2.531z" fill="#F0E45A"/><path d="M49.36 42.295a1.265 1.265 0 100-2.53 1.265 1.265 0 000 2.53zm6.328 0a1.265 1.265 0 100-2.53 1.265 1.265 0 000 2.53zm-12.658 0a1.265 1.265 0 100-2.53 1.265 1.265 0 000 2.53z" fill="#0A7440"/></svg>