<svg width="41" height="145" fill="none" xmlns="http://www.w3.org/2000/svg"><path d="M13.298 139.788c-3.021-3.023-4.647-6.742-4.647-11.16 0-4.417 1.626-8.137 4.647-11.159 3.02-3.022 6.97-4.417 11.617-4.417 4.648 0 8.365 1.395 11.386 4.417 3.02 3.022 4.415 6.742 4.415 11.159 0 4.418-1.395 8.137-4.415 11.16-3.02 3.022-6.738 4.417-11.386 4.417-4.647 0-8.597-1.395-11.617-4.417zm-3.253-137.4h29.741l-5.112 93.925H14.692L10.045 2.389z" fill="#FCEA10"/><path d="M17.015 142.577c-4.647 0-8.83-1.627-11.85-4.649-3.02-3.023-4.647-6.975-4.647-11.392s1.627-8.369 4.647-11.159c3.02-3.023 7.203-4.418 11.85-4.418 4.648 0 8.598 1.628 11.618 4.418 3.02 3.022 4.647 6.742 4.647 11.159 0 4.417-1.626 8.369-4.647 11.392-3.02 3.022-6.97 4.649-11.618 4.649zM5.63 137.463c3.02 3.022 6.738 4.417 11.385 4.417 4.415 0 8.133-1.395 11.154-4.417 3.02-3.023 4.414-6.51 4.414-10.927s-1.394-7.905-4.414-10.927c-3.021-2.79-6.739-4.417-11.154-4.417-4.647 0-8.364 1.395-11.385 4.417-3.02 2.79-4.415 6.51-4.415 10.927s1.394 8.137 4.415 10.927zm21.61-42.777H6.791v-.233L1.912.064H32.12v.232l-4.88 94.39zm-19.984-.698h19.286l4.88-93.46H2.377l4.88 93.46z" fill="#063"/></svg>