<svg width="30" height="105" fill="none" xmlns="http://www.w3.org/2000/svg"><path d="M9.693 101.228C7.37 99.135 6.44 96.345 6.44 93.091c0-3.255 1.162-5.813 3.253-7.905 2.324-2.092 5.112-3.255 8.365-3.255s6.041 1.163 8.132 3.255c2.092 2.092 3.253 4.882 3.253 7.905 0 3.254-1.161 5.812-3.253 8.137-2.09 2.324-4.88 3.254-8.132 3.254-3.485 0-6.274-1.162-8.365-3.254zM7.37 1.724h21.376L25.03 69.609H10.623L7.37 1.724z" fill="#FCEA10"/><path d="M12.249 103.32c-3.485 0-6.274-1.162-8.597-3.255C1.328 97.74.166 94.951.166 91.695c0-3.254 1.162-6.044 3.486-8.136 2.323-2.093 5.112-3.255 8.597-3.255 3.253 0 6.274 1.162 8.365 3.255 2.323 2.092 3.253 4.882 3.253 8.137 0 3.255-1.162 6.044-3.253 8.369-2.091 2.093-4.88 3.255-8.365 3.255zm0-22.551c-3.253 0-6.041 1.162-8.133 3.022-2.09 2.093-3.253 4.65-3.253 7.672 0 3.023 1.162 5.813 3.253 7.905 2.092 2.092 4.88 3.255 8.133 3.255 3.253 0 5.809-1.163 7.9-3.255 2.091-2.093 3.253-4.65 3.253-7.905 0-3.022-1.162-5.812-3.253-7.672-1.859-1.86-4.647-3.022-7.9-3.022zm7.435-12.09H4.814v-.232L1.327.33h22.074v.233L19.684 68.68zm-14.406-.697h13.71L22.472.562H1.56l3.718 67.42z" fill="#063"/></svg>