<svg width="24" height="85" fill="none" xmlns="http://www.w3.org/2000/svg"><path d="M8.164 81.542c-1.859-1.86-2.556-3.952-2.556-6.51 0-2.557.93-4.65 2.556-6.509 1.859-1.627 3.95-2.557 6.738-2.557 2.556 0 4.88.93 6.506 2.557 1.86 1.627 2.556 3.72 2.556 6.51 0 2.557-.93 4.65-2.556 6.51-1.626 1.86-3.95 2.557-6.506 2.557-2.556.232-4.88-.698-6.738-2.558zM6.305 2.032H23.5l-2.79 54.402H9.093L6.305 2.032z" fill="#FCEA10"/><path d="M10.488 83.402c-2.788 0-5.112-.93-6.97-2.79-1.861-1.86-2.79-3.952-2.79-6.742 0-2.557.93-4.882 2.788-6.51 1.86-1.86 4.183-2.557 6.971-2.557 2.788 0 4.88.93 6.738 2.558 1.86 1.86 2.789 3.952 2.789 6.51 0 2.556-.93 4.881-2.789 6.741-1.858 1.86-4.182 2.79-6.738 2.79zm0-18.134c-2.556 0-4.88.93-6.506 2.557-1.627 1.628-2.556 3.72-2.556 6.278 0 2.557.93 4.65 2.556 6.277 1.627 1.627 3.95 2.557 6.506 2.557s4.647-.93 6.274-2.557c1.626-1.628 2.556-3.72 2.556-6.277 0-2.558-.93-4.65-2.556-6.278-1.627-1.627-3.718-2.557-6.274-2.557zm5.809-9.764H4.214v-.233L1.426.637h17.892V.87l-3.021 54.634zM4.91 55.039h10.921L18.62 1.335H2.123l2.788 53.704z" fill="#063"/></svg>