<svg width="56" height="57" fill="none" xmlns="http://www.w3.org/2000/svg"><g opacity=".5"><path d="M10.042 30.076a1.2 1.2 0 001.189-1.212 1.2 1.2 0 00-1.189-1.213 1.2 1.2 0 00-1.188 1.213 1.2 1.2 0 001.188 1.212zm0 6.064a1.2 1.2 0 001.189-1.212 1.2 1.2 0 00-1.189-1.213 1.2 1.2 0 00-1.188 1.213 1.2 1.2 0 001.188 1.212zm0 5.943a1.2 1.2 0 001.189-1.213 1.2 1.2 0 00-1.189-1.212 1.2 1.2 0 00-1.188 1.212 1.2 1.2 0 001.188 1.213z" fill="#0A7440"/><path d="M39.16 0H14.44c-1.308 0-2.496.485-3.447 1.455l-8.914 8.49c-.95.97-1.426 2.183-1.426 3.517v12.976c0 .485.357.85.832.85.476 0 .832-.365.832-.85v-13.34h8.438c1.902 0 3.447-1.577 3.447-3.517V1.577h24.957c.951 0 1.664.727 1.664 1.697v50.33c0 .97-.713 1.698-1.664 1.698H3.981c-.95 0-1.664-.727-1.664-1.698V29.713c0-.485-.356-.85-.832-.85-.475 0-.832.365-.832.85v23.891C.653 55.424 2.08 57 3.981 57h35.297c1.783 0 3.328-1.455 3.328-3.396V3.274C42.487 1.455 41.06 0 39.159 0zM12.418 1.577c0 .97-1.412 2.221-2.362 2.221L2.91 11.521c.12-.121.76-.18.76-.302l8.392-8.55.356-.365v-.727z" fill="#008D36"/><path d="M34.287 28.015H15.153c-.476 0-.832.364-.832.849s.356.849.832.849h19.134c.475 0 .832-.364.832-.85 0-.484-.357-.848-.832-.848zm0 6.064H15.153c-.476 0-.832.364-.832.849s.356.849.832.849h19.134c.475 0 .832-.364.832-.85 0-.484-.357-.848-.832-.848zm0 5.942H15.153c-.476 0-.832.364-.832.85 0 .484.356.848.832.848h19.134c.475 0 .832-.364.832-.849s-.357-.849-.832-.849zM19.074 19.647H9.33c-.475 0-.832.364-.832.849s.357.849.832.849h9.745c.476 0 .832-.364.832-.85 0-.363-.356-.848-.832-.848z" fill="#0A7440"/><path d="M54.728 17.706h-2.496v-2.061c0-1.94-1.545-3.517-3.446-3.517-1.902 0-3.447 1.576-3.447 3.517v11.4c0 .485.357.849.832.849.476 0 .832-.364.832-.85v-7.64h3.566v26.681h-3.566V30.44c0-.485-.356-.849-.832-.849-.475 0-.832.364-.832.85v16.372l2.377 9.095v.122c.12.485.594.727 1.07.727.475 0 .832-.242 1.07-.727v-.122l2.376-9.095V19.404h1.664v12.128c0 .485.357.849.832.849.476 0 .832-.364.832-.85V18.556c0-.485-.356-.849-.832-.849zm-7.725 0v-2.061c0-.97.832-1.82 1.783-1.82.95 0-.014-1.102-.014-.132l-1.995.133.226 3.88zm1.783 35.898l-1.545-5.942.733 4.373.812 1.57z" fill="#008D36"/></g></svg>