<svg width="48" height="56" fill="none" xmlns="http://www.w3.org/2000/svg"><path d="M31.924 14.69H6.43c-.451 0-.79.35-.79.816 0 .466.339.816.79.816h25.607c.451 0 .79-.35.79-.816-.113-.466-.452-.816-.903-.816zM6.43 10.726h12.747c.451 0 .79-.35.79-.816 0-.466-.339-.816-.79-.816H6.43c-.451 0-.79.35-.79.816 0 .466.339.816.79.816zm25.494 8.977H6.43c-.451 0-.79.35-.79.817 0 .466.339.816.79.816h25.607c.451 0 .79-.35.79-.816-.113-.467-.452-.817-.903-.817z" fill="#80C69B"/><path d="M12.183 49.434H3.948c-1.353 0-2.482-1.166-2.482-2.565V3.964c0-1.399 1.129-2.565 2.482-2.565H27.75v5.013c0 2.332 1.805 4.198 4.061 4.198h4.851v14.107c0 .466.338.816.79.816.45 0 .79-.35.79-.816V10.959c0-.932-.34-1.748-.903-2.331L29.894.933C29.33.35 28.427 0 27.638 0H4.06C1.805 0 0 1.865 0 4.197v42.905c0 2.332 1.805 4.197 4.061 4.197h8.122c.451 0 .79-.35.79-.816 0-.7-.339-1.05-.79-1.05zm23.464-40.34v-.868c-1.224-1.16-2.346-.92-2.346-2.32l-3.971-3.34 6.317 6.529z" fill="#80C69B"/><path d="M47.153 39.64l-6.656-11.659c-.45-.816-1.579-1.166-2.368-.583l-1.58 1.05c-1.24.816-1.805 2.331-1.353 3.73a2.134 2.134 0 01-1.692 0c-1.241-.466-2.257-1.282-3.836-.816-2.707.7-2.595.7-2.933.817-1.58-.933-2.594-1.166-4.287-.583l-1.466.582c-.677.234-1.466.234-2.143-.233l-.451-.233a3.173 3.173 0 00-1.467-3.264l-1.58-1.05c-.789-.466-1.917-.233-2.368.583l-6.656 11.66c-.451.815-.225 1.981.564 2.448l1.58 1.049c.45.35 1.015.466 1.579.466.564 0 1.128-.233 1.692-.466h.451l-.677 1.05c-.902 1.165-.564 2.914.564 3.847.564.35 1.241.583 1.918.466.113.7.451 1.282 1.015 1.749.564.35 1.241.583 1.918.466a2.78 2.78 0 001.015 1.749c.79.583 1.805.7 2.595.233.225.466.451.933.902 1.283 1.128.816 2.708.583 3.61-.467l1.918 1.166c1.24.816 2.82.35 3.61-.932.225-.35.338-.7.338-1.05 1.24.816 2.82.35 3.61-.933a2.31 2.31 0 00.338-1.165c1.128.233 2.256-.234 2.933-1.283.226-.35.339-.7.339-1.05 1.128.467 2.594 0 3.27-1.165.34-.583.452-1.4.34-2.099-.113-.35-.34-.816-.565-1.049l1.016-.583c.902.35 1.917.35 2.707-.233l1.58-1.05c.902-.582 1.24-1.632.676-2.448zm-37.79 1.982l-1.58-1.05c-.112 0-.112-.116 0-.232l6.656-11.66c0-.116.113-.116.226 0l1.58 1.05c.676.466.902 1.4.563 2.099l-5.302 9.21c-.45.816-1.353 1.05-2.143.583zm3.61 5.014c-.451-.35-.564-1.05-.226-1.516l1.015-1.516c.339-.466 1.016-.583 1.467-.233.451.35.564 1.05.226 1.516l-1.016 1.515c-.338.467-1.015.583-1.466.233zm3.046 2.331c-.452-.35-.564-1.049-.226-1.515l1.015-1.516 1.128-1.632c.113-.233.451-.35.677-.467h.226a.85.85 0 01.564.234c.225.116.338.466.451.7 0 .232 0 .582-.226.815l-2.256 3.148c-.225.466-.902.583-1.353.233zm2.933 2.215c-.452-.35-.565-1.049-.226-1.515l2.256-3.148c.338-.466 1.015-.583 1.466-.233.452.35.564 1.05.226 1.515l-1.015 1.4-1.241 1.748c-.338.467-1.015.583-1.466.233zm3.496 1.516c-.45-.35-.564-1.05-.225-1.516l.677-1.049c.338-.466 1.015-.583 1.466-.233.451.35.564 1.05.226 1.516l-.677 1.049c-.338.466-1.015.583-1.466.233zm17.598-6.529c-.338.467-.902.7-1.466.35-.903-.466-6.317-3.847-6.994-4.314-.339-.233-.903-.116-1.128.233-.226.35-.113.933.225 1.166l5.302 3.265c.451.35.677.932.339 1.515-.339.467-.903.7-1.467.35-1.918-1.166-3.497-2.099-5.302-3.264-.338-.233-.902-.117-1.128.233-.225.35-.113.932.226 1.166l3.835 2.331c.451.35.677.933.339 1.516-.339.466-.903.7-1.467.35l-2.03-1.283-1.467-.932c-.338-.233-.902-.117-1.128.233-.226.35-.113.933.226 1.166l1.466.932c.451.35.677.933.339 1.516-.339.466-.903.7-1.467.35l-1.805-1.05c.79-1.165.451-2.797-.677-3.73-.338-.233-.676-.35-1.128-.467.452-1.166 0-2.448-.902-3.148-.564-.466-1.241-.582-1.918-.466a2.782 2.782 0 00-1.015-1.749c-1.015-.816-2.482-.583-3.384.35a2.68 2.68 0 00-.79-.816c-.902-.7-2.03-.7-2.933-.117l-.338-.233 4.963-8.627.226.116c1.015.583 2.256.816 3.497.35l1.466-.583c.903-.35 1.354-.35 2.144 0-.564.7-.903 1.516-.903 2.448v3.615c0 .932.79 1.748 1.692 1.748.903 0 1.805-.35 2.482-1.049.338-.35.677-.816.79-1.399 1.015.583 9.363 5.713 10.378 6.296.225.117.451.35.451.7.677.35.677.699.451.932zm5.753-5.48l-1.579 1.05c-.677.466-1.58.233-2.03-.583l-2.482-4.314c-.226-.35-.677-.466-1.128-.233-.339.233-.451.7-.226 1.166l2.482 4.314c0 .116.113.116.113.233l-.677.466c-.113.117-.226.233-.451.233l-10.717-6.645c-.564-.35-1.24.116-1.24.7 0 0 .112.932-.565 1.515-.338.35-.79.583-1.354.583-.112 0-.112 0-.112-.117v-3.614c0-.933.677-1.749 1.466-1.982l2.595-.7c.902-.233 1.466.234 2.933.817 1.015.35 2.03.35 3.045 0l.452.816c.225.35.676.466 1.128.233.338-.233.45-.7.225-1.166l-.902-1.632c-.451-.7-.226-1.633.564-2.099l1.58-1.05h.225l6.655 11.66c.113.116 0 .233 0 .35z" fill="#80C69B"/><path d="M14.589 27.94l-7.11 11.985-.375.773 2.994 1.933 1.123-.773 2.62-3.48 2.619-5.025 1.123-3.48-2.994-1.932zm21.331 2.707l-.374 2.706 2.994 5.025 1.497.773 2.62 3.48 2.62-.387 1.496-1.546-.748-1.16-1.497-2.706-2.245-3.48-1.872-3.478-.748-1.546-1.123-.387-1.497 1.16-1.123 1.546z" fill="#80C69B"/></svg>