<svg width="62" height="49" fill="none" xmlns="http://www.w3.org/2000/svg"><path d="M58.571 24.839h-5.245V10.387c0-1.92-1.53-3.5-3.388-3.5h-7.867v-3.5C42.07 1.467 40.54 0 38.791 0H3.278C1.42 0 0 1.58 0 3.387v1.468c0 .564.437.903.874.903s.874-.452.874-.903V3.387c0-.79.656-1.58 1.53-1.58h35.514c.765 0 1.53.677 1.53 1.58v29.468H1.857V9.258a.876.876 0 00-.874-.903c-.546 0-.874.451-.874.903v31.839c0 1.92 1.53 3.387 3.278 3.387h2.076C5.901 47.08 8.086 49 10.71 49c2.622 0 4.808-1.92 5.245-4.516h14.424c.546 0 .874-.452.874-.903a.876.876 0 00-.874-.904H15.954c-.437-2.596-2.623-4.629-5.245-4.629-2.623 0-4.918 2.033-5.246 4.63H3.387c-.765 0-1.53-.678-1.53-1.581v-6.323h38.465v7.79h-5.791c-.547 0-.875.452-.875.904 0 .451.438.903.875.903h11.801c.437 2.597 2.623 4.516 5.245 4.516 2.623 0 4.809-1.92 5.246-4.516h1.748c1.858 0 3.388-1.58 3.388-3.5v-12.42c0-2.032-1.53-3.612-3.388-3.612zm1.64 4.968h-2.405c-1.53 0-2.732 1.241-2.732 2.822 0 1.58 1.202 2.823 2.732 2.823h2.404v5.532c0 .903-.656 1.58-1.53 1.58h-1.748c-.437-2.596-2.623-4.629-5.245-4.629-2.623 0-4.918 2.033-5.245 4.63h-4.153V8.694h7.868c.874 0 1.53.677 1.53 1.58v.226h-6.12c-.546 0-.874.452-.874.903v14.339c0 .564.437.903.874.903H58.68c.874 0 1.64.79 1.64 1.694l-.11 1.468zm-8.633-17.388v12.42H46.44v-12.42h5.136z" fill="#80C69B"/></svg>