<svg width="59" height="52" fill="none" xmlns="http://www.w3.org/2000/svg"><path d="M1.741 6.022l2.966-2.635L8.043.753h5.19L22.5.376h8.897l7.413.377L36.586 0l1.483.376.741.377 2.966 2.258.37.376.371.376 1.112 2.635.371 4.14v4.892l-1.112.377H27.69l-7.043.752-4.078 3.01-1.112 5.27v4.14l-1.483.376-1.853.376-2.966 3.387L6.19 35v-1.882l.37-4.892-1.853-1.13-2.595-2.634L1 15.807l.741-9.785z" fill="#80C69B"/><path d="M48.272 15.06h-4.173v-4.643c0-2.604-.989-5.208-2.746-7.133a.843.843 0 00-1.208 0 .908.908 0 000 1.245c1.428 1.585 2.306 3.737 2.306 5.888v4.643h-17.79c-5.601 0-10.104 4.642-10.104 10.417v3.17H13.24c-.549 0-1.098.227-1.427.566L7.199 33.97v-4.756c0-.68-.329-1.472-.988-1.811-2.526-1.586-4.063-4.416-4.063-7.474v-9.624c0-4.756 3.734-8.606 8.346-8.606h23.501c1.099 0 2.087.227 3.185.68.44.226.988 0 1.098-.453.22-.453 0-1.02-.439-1.132C36.631.34 35.313 0 34.105 0H10.494C4.894 0 .391 4.642.391 10.417v9.625c0 3.623 1.867 7.133 4.941 8.945.11 0 .11.113.11.226v5.209c0 .68.33 1.245.989 1.472.439.226 1.208.113 1.757-.34l4.942-5.095s.11-.113.22-.113h1.317v4.642c0 1.359.22 2.83.769 4.076.22.453.659.68 1.098.453.44-.226.659-.68.44-1.132-.44-1.02-.66-2.151-.66-3.397v-9.625c0-4.755 3.734-8.605 8.347-8.605h23.61c4.613 0 8.347 3.85 8.347 8.605v9.625a8.609 8.609 0 01-4.063 7.36c-.55.34-.989 1.02-.989 1.812v5.888l-5.6-5.775c-.33-.34-.879-.566-1.428-.566H24.661c-2.087 0-4.064-.793-5.71-2.265a.844.844 0 00-1.209 0 .908.908 0 000 1.246c1.867 1.811 4.283 2.717 6.809 2.717h20.097c.11 0 .11 0 .22.113l5.82 6.002c.44.34.878.679 1.647.34.55-.227.989-.793.989-1.473V44.16c0-.114 0-.227.11-.227 3.074-1.925 4.831-5.208 4.831-8.945v-9.625c.11-5.661-4.392-10.303-9.993-10.303z" fill="#80C69B"/><path d="M33.995 36.347c-.549-.793-1.427-1.246-2.525-1.246-1.648 0-2.856 1.133-2.856 2.491 0 1.36 1.318 2.492 2.856 2.492 1.427 0 2.635-.906 2.855-2.039 1.318-.566 2.306-1.698 2.745-3.057a2.881 2.881 0 002.197-2.83v-3.171c0-1.359-.879-2.491-2.087-2.83-.33-1.813-1.098-3.398-2.416-4.643a7.914 7.914 0 00-5.38-2.152c-3.954 0-7.249 2.944-7.798 6.794-1.208.34-2.087 1.472-2.087 2.83v3.171c0 1.586 1.318 2.944 2.856 2.944 1.537 0 2.855-1.358 2.855-2.944v-3.17c0-1.246-.769-2.378-1.867-2.718.55-2.944 3.075-5.095 6.04-5.095s5.491 2.151 6.04 5.095c-1.098.453-1.867 1.472-1.867 2.718v3.17c0 1.246.66 2.265 1.648 2.718-.11.68-.66 1.132-1.209 1.472zm-2.415 2.038c-.66 0-1.208-.453-1.208-.793s.439-.792 1.207-.792c.77 0 1.209.453 1.209.792-.11.453-.55.793-1.208.793zm-8.127-6.114c0 .679-.55 1.132-1.098 1.132-.55 0-1.099-.566-1.099-1.132V29.1c0-.68.55-1.133 1.099-1.133.549 0 1.098.566 1.098 1.132v3.17zm11.97-3.284c0-.68.55-1.132 1.098-1.132.55 0 1.099.566 1.099 1.132v3.17c0 .68-.55 1.133-1.099 1.133-.549 0-1.098-.566-1.098-1.133v-3.17zm6.15-4.642h6.918c.44 0 .879-.453.879-.906s-.44-.906-.879-.906h-6.918c-.44 0-.879.453-.879.906s.44.905.879.905zm0 4.075h5.38c.44 0 .88-.452.88-.905s-.44-.906-.88-.906h-5.38c-.44 0-.879.453-.879.906s.44.906.879.906z" fill="#80C69B"/><path d="M8.847 13.022c.728 0 1.318-.609 1.318-1.359s-.59-1.359-1.318-1.359c-.728 0-1.318.608-1.318 1.359 0 .75.59 1.359 1.318 1.359zm3.953 0c.728 0 1.318-.609 1.318-1.359s-.59-1.359-1.318-1.359c-.728 0-1.318.608-1.318 1.359 0 .75.59 1.359 1.318 1.359zm3.844 0c.728 0 1.318-.609 1.318-1.359s-.59-1.359-1.318-1.359c-.728 0-1.318.608-1.318 1.359 0 .75.59 1.359 1.318 1.359z" fill="#fff"/></svg>