<svg width="43" height="41" fill="none" xmlns="http://www.w3.org/2000/svg"><path d="M32.743 0c-2.696 0-5.296.963-7.223 2.888-1.926 1.925-2.985 4.428-2.985 7.123v6.545H1.83c-1.06 0-1.83.867-1.83 1.83V39.08c0 1.058.867 1.828 1.83 1.828h27.928c1.06 0 1.83-.866 1.83-1.828v-20.6a1.828 1.828 0 00-1.83-1.829h-2.119v-6.449c0-2.695 2.215-5.005 4.912-5.101 1.348 0 2.6.48 3.563 1.443.963.963 1.445 2.214 1.445 3.562v3.947c0 1.058.866 1.925 1.926 1.925h1.252a1.932 1.932 0 001.926-1.925v-3.85C42.663 4.62 38.233 0 32.743 0zm-2.985 17.904c.289 0 .578.289.578.577v.77H7.608c-.385 0-.578.29-.578.578 0 .385.29.578.578.578h22.728v2.791h-3.66c-.385 0-.578.289-.578.578 0 .385.29.577.578.577h3.66v3.562h-3.66c-.385 0-.578.288-.578.577 0 .385.29.578.578.578h3.66v3.561h-3.66c-.385 0-.578.289-.578.578 0 .385.29.577.578.577h3.66v2.792h-4.141c-.386 0-.578.289-.578.577 0 .385.289.578.578.578h4.14v.77c0 .289-.288.578-.577.578H1.83c-.29 0-.578-.29-.578-.578v-.77h22.053c.386 0 .578-.289.578-.578 0-.385-.289-.577-.578-.577H1.252v-2.792h3.66c.385 0 .577-.288.577-.577 0-.385-.289-.578-.577-.578h-3.66V29.07h3.66c.385 0 .577-.289.577-.578 0-.385-.289-.577-.577-.577h-3.66v-3.562h3.66c.385 0 .577-.289.577-.577 0-.386-.289-.578-.577-.578h-3.66v-2.791h3.467c.385 0 .578-.29.578-.578 0-.289-.29-.578-.578-.578H1.252v-.77c0-.288.289-.577.578-.577h27.928z" fill="#80C69B"/><path d="M15.794 23.39c-1.83 0-3.37 1.54-3.37 3.37 0 1.058.48 2.117 1.444 2.695v2.791c0 1.06.866 2.022 2.022 2.022 1.156 0 2.022-.867 2.022-2.022v-2.791c.867-.674 1.445-1.636 1.445-2.695-.193-1.926-1.637-3.37-3.563-3.37z" fill="#80C69B"/></svg>