<svg width="64" height="64" fill="none" xmlns="http://www.w3.org/2000/svg"><path d="M41.248 63.202a2.481 2.481 0 01-1.82.798H24.573a2.481 2.481 0 01-2.47-2.678 9.897 9.897 0 013.147-6.478 9.887 9.887 0 014.875-2.47v-5.152h3.75v5.152a9.888 9.888 0 014.875 2.47 9.896 9.896 0 013.146 6.478 2.486 2.486 0 01-.648 1.88z" fill="#168D50"/><path d="M41.248 63.202a2.481 2.481 0 01-1.82.798H32V47.222h1.875v5.152a9.887 9.887 0 014.875 2.47 9.897 9.897 0 013.146 6.478 2.486 2.486 0 01-.648 1.88z" fill="#0A7440"/><path d="M64 6.442v36.214a6.45 6.45 0 01-6.443 6.441H6.444A6.45 6.45 0 010 42.657V6.442A6.45 6.45 0 016.442 0h51.115A6.45 6.45 0 0164 6.442z" fill="#90C33B"/><path d="M64 6.442v36.214a6.45 6.45 0 01-6.443 6.441H32V0h25.557A6.45 6.45 0 0164 6.442z" fill="#54B03F"/><path d="M64 39.638v3.018a6.45 6.45 0 01-6.443 6.441H6.444A6.45 6.45 0 010 42.657v-3.02h64z" fill="#168D50"/><path d="M64 39.638v3.018a6.45 6.45 0 01-6.443 6.441H32v-9.46h32z" fill="#0A7440"/><path d="M13.875 29.081c1.036 0 1.875-.84 1.875-1.875v-2.365h8.086v2.365a1.875 1.875 0 003.75 0v-7.413c0-4.297-3.496-7.793-7.793-7.793C15.496 12 12 15.496 12 19.793v7.413c0 1.036.84 1.875 1.875 1.875zm5.918-13.33a4.048 4.048 0 014.043 4.042v1.298H15.75v-1.298a4.048 4.048 0 014.043-4.043zM39.23 29.424h5.22c4.803 0 8.711-3.908 8.711-8.712S49.253 12 44.45 12h-5.22C38 12 37 13 37 14.23v12.965c0 1.23 1 2.23 2.23 2.23zm1.52-13.674h3.7a4.968 4.968 0 014.961 4.962 4.968 4.968 0 01-4.962 4.962H40.75V15.75z" fill="#F2C397"/></svg>