<svg width="77" height="77" fill="none" xmlns="http://www.w3.org/2000/svg"><path d="M38.5 0l18.74 9.645 18.82 9.566-18.82 9.644L38.5 38.5l-18.74-9.645L.94 19.211l18.82-9.566L38.5 0z" fill="#D9AC80"/><path d="M61.945 35.207v-8.704l-9.41 4.783v8.704l5.176-6.352 4.234 1.569z" fill="#168D50"/><path d="M38.5 38.5V77l37.56-19.21V19.21l-14.115 7.293-.314.157v8.468l-3.92-1.49-5.175 6.352v-8.704L38.5 38.5z" fill="#A67E4F"/><path d="M38.5 77V38.5l-18.74-9.645L.94 19.211v38.578L38.501 77z" fill="#926E43"/><path d="M15.055 11.997l37.48 19.29 9.097-4.627.313-.157-37.48-19.29-4.705 2.432-4.705 2.352z" fill="#168D50"/></svg>