<svg width="60" height="60" fill="none" xmlns="http://www.w3.org/2000/svg"><path d="M39.826 49.503L28.04 45.217l-7.867 4.286-3.964 5.183L30 58.38l13.79-3.694-3.964-5.183z" fill="#0A7440"/><path d="M50.99 54.686H9.01a2.657 2.657 0 100 5.314h41.98a2.657 2.657 0 000-5.314zM53.783 0H6.217A6.217 6.217 0 000 6.217v37.068a6.217 6.217 0 006.217 6.218h47.566A6.217 6.217 0 0060 43.285V6.217A6.217 6.217 0 0053.783 0z" fill="#168D50"/><path d="M6.217 41.543a2.547 2.547 0 01-2.543-2.544V6.217a2.547 2.547 0 012.543-2.543h47.566a2.547 2.547 0 012.543 2.543V39a2.547 2.547 0 01-2.543 2.544H6.217z" fill="#fff"/><path d="M53.783 42.461H6.217A3.466 3.466 0 012.755 39V6.217a3.466 3.466 0 013.462-3.462h47.566a3.466 3.466 0 013.462 3.462V39a3.466 3.466 0 01-3.462 3.462zM6.217 4.591c-.896 0-1.625.73-1.625 1.626V39c0 .897.729 1.626 1.625 1.626h47.566c.896 0 1.625-.73 1.625-1.626V6.217c0-.896-.729-1.625-1.625-1.625H6.217z" fill="#0A7440"/><path d="M42.75 22.548l-.313 2.387-1.035 7.885a2.83 2.83 0 01-2.806 2.462H21.403a2.83 2.83 0 01-2.805-2.462l-1.035-7.885-.313-2.387 15.864-2.39 9.637 2.39z" fill="#E2AE83"/><path d="M22.995 32.82l-1.348-10.273 13.129-1.978-1.662-.412-15.865 2.39 1.348 10.273a2.83 2.83 0 002.806 2.462h4.398a2.83 2.83 0 01-2.806-2.462z" fill="#C48D69"/><path d="M42.75 22.548l-.313 2.387H17.563l-.313-2.387 15.864-2.39 9.637 2.39z" fill="#C48D69"/><path d="M39.034 16.481h3.474c.912 0 1.65.74 1.65 1.651v2.765a1.65 1.65 0 01-1.65 1.65H17.49a1.65 1.65 0 01-1.65-1.65v-2.765c0-.91.739-1.65 1.65-1.65h3.474" fill="#E2AE83"/><path d="M38.485 15.506l-7.013-7.014a2.081 2.081 0 00-2.944 0l-7.014 7.014a2.081 2.081 0 102.944 2.944l5.543-5.542H30l5.541 5.542a2.082 2.082 0 102.944-2.944z" fill="#0A7440"/><path d="M19.827 20.897v-2.765c0-.91.738-1.65 1.649-1.65h-3.985c-.911 0-1.65.74-1.65 1.65v2.765c0 .911.739 1.65 1.65 1.65h3.985a1.65 1.65 0 01-1.65-1.65z" fill="#C48D69"/><path d="M12.72 57.343a2.657 2.657 0 012.658-2.657H9.01a2.657 2.657 0 100 5.314h6.367a2.657 2.657 0 01-2.657-2.657z" fill="#0A7440"/></svg>