<svg width="59" height="59" fill="none" xmlns="http://www.w3.org/2000/svg"><g clip-path="url(#clip0)"><path d="M57.361 51.09L34.006 27.97v-1.715a12.832 12.832 0 008.33-12.024c0-7.079-5.758-12.837-12.836-12.837s-12.837 5.76-12.837 12.838a4.51 4.51 0 004.506 4.505 4.51 4.51 0 004.506-4.505 3.83 3.83 0 013.825-3.826 3.83 3.83 0 013.826 3.826 3.83 3.83 0 01-3.826 3.825 4.51 4.51 0 00-4.505 4.506v5.409L1.633 51.094c-1.988 1.988-1.737 3.609-1.41 4.398.327.789 1.295 2.112 4.106 2.112h50.342c2.812 0 3.78-1.323 4.107-2.112.326-.79.578-2.41-1.417-4.404zm-16.413-2.982H18.052L29.5 36.66l11.448 11.448z" fill="#D39C72"/><path d="M57.361 51.089L34.006 27.97v-1.716a12.832 12.832 0 008.33-12.024c0-7.078-5.758-12.836-12.836-12.836v9.01a3.83 3.83 0 013.826 3.826 3.83 3.83 0 01-3.826 3.826v18.602l11.448 11.448H29.5v9.498h25.17c2.813 0 3.78-1.323 4.108-2.113.326-.789.578-2.409-1.417-4.403z" fill="#E3AD84"/></g><defs><clipPath id="clip0"><path fill="#fff" d="M0 0h59v59H0z"/></clipPath></defs></svg>