<svg width="61" height="61" fill="none" xmlns="http://www.w3.org/2000/svg"><path d="M12.845 61h-7.27V17.38L30.5 4.92l24.925 12.46V61h-7.27V21.535h-35.31V61z" fill="#1D9258"/><path d="M30.5 53.73h-6.231v6.232H30.5V53.73z" fill="#E2AE83"/><path d="M36.731 53.73h-6.23v6.232h6.23V53.73z" fill="#C48D69"/><path d="M42.962 53.73h-6.23v6.232h6.23V53.73z" fill="#E2AE83"/><path d="M42.962 47.499h-6.23v6.231h6.23V47.5z" fill="#C48D69"/><path d="M50.232 21.535H10.768v4.155h39.464v-4.155z" fill="#0A7440"/><path d="M48.155 25.69h-35.31v16.616h35.31V25.69z" fill="#90C33B"/><path d="M31.538 5.438l24.68 12.34a2.322 2.322 0 102.077-4.154L31.538.246a2.321 2.321 0 00-2.076 0L2.704 13.624a2.323 2.323 0 002.078 4.154l24.68-12.34a2.32 2.32 0 012.076 0zm12.463 25.444H17a1.039 1.039 0 010-2.077h27.002a1.039 1.039 0 110 2.077zm0 4.154H17a1.039 1.039 0 110-2.077h27.002a1.039 1.039 0 010 2.077zm0 4.154H17a1.039 1.039 0 110-2.076h27.002a1.039 1.039 0 010 2.077z" fill="#0A7440"/></svg>