<svg width="100" height="140" fill="none" xmlns="http://www.w3.org/2000/svg"><path d="M49.766 74.695c2.544-4.395 6.475-9.252 11.563-14.341 3.7-3.933 6.476-7.17 8.095-9.715 1.85-2.545 2.544-5.552 2.544-9.022 0-4.626-1.62-8.558-4.857-11.334-3.238-2.776-7.632-4.163-13.182-4.163-5.32 0-9.945 1.156-14.108 3.7-4.163 2.545-7.632 6.015-10.407 10.41L9.062 26.582c4.626-8.096 11.101-14.572 19.196-18.967C36.352 3.22 45.834.907 56.704.907c12.951 0 23.358 3.238 30.99 9.483 7.863 6.246 11.796 15.036 11.796 26.14 0 5.32-.694 9.946-2.313 13.878-1.619 3.933-3.469 7.402-5.55 10.178-2.082 2.776-5.088 6.014-8.557 9.484-4.163 4.163-7.17 7.864-9.02 10.64-1.85 2.776-2.775 6.477-2.775 10.41h-25.44c0-6.478 1.156-12.03 3.932-16.424zm-2.776 59.678c-3.006-3.469-4.625-7.633-4.625-12.491 0-4.857 1.619-9.021 4.625-12.259 3.007-3.238 6.939-4.858 11.564-4.858s8.557 1.62 11.564 4.858c3.006 3.238 4.625 7.402 4.625 12.259 0 4.858-1.619 9.022-4.625 12.491-3.007 3.47-6.939 5.089-11.564 5.089s-8.557-1.619-11.564-5.089z" fill="#FCEA10" stroke="#FCEA10" stroke-miterlimit="10"/><path d="M39.59 74.926c2.544-3.932 6.013-8.327 10.639-13.184 3.469-3.47 6.013-6.477 7.632-8.79 1.619-2.313 2.312-5.089 2.312-8.096 0-4.395-1.619-7.633-4.625-10.178-3.007-2.544-7.17-3.7-12.258-3.7-4.856 0-9.25 1.156-13.182 3.469-3.7 2.313-6.938 5.551-9.713 9.484L1.43 31.44c4.394-7.402 10.407-13.185 17.807-17.348 7.401-4.164 16.19-6.246 26.596-6.246 12.027 0 21.74 2.776 28.91 8.559 7.169 5.782 10.869 13.647 10.869 23.825 0 4.857-.694 9.02-2.081 12.722-1.388 3.7-3.238 6.708-5.088 9.252-2.082 2.545-4.626 5.32-7.864 8.79-3.931 3.932-6.706 7.17-8.557 9.715-1.85 2.545-2.775 5.783-2.775 9.484h-23.59c.232-6.245 1.62-11.334 3.932-15.267zm-2.544 54.359c-2.775-3.008-4.394-6.94-4.394-11.335 0-4.395 1.388-8.096 4.163-11.103 2.775-3.007 6.476-4.395 10.87-4.395 4.394 0 8.094 1.388 10.87 4.395 2.775 3.007 4.162 6.708 4.162 11.103s-1.387 8.096-4.394 11.335c-2.775 3.007-6.475 4.626-10.638 4.626s-7.632-1.619-10.639-4.626z" stroke="#3AAA35" stroke-width="1.5" stroke-miterlimit="10"/></svg>