<svg width="73" height="103" fill="none" xmlns="http://www.w3.org/2000/svg"><path d="M36.03 54.313c1.85-3.239 4.625-6.708 8.325-10.64 2.775-2.776 4.626-5.09 6.013-7.171a12.437 12.437 0 001.85-6.477c0-3.47-1.156-6.245-3.7-8.096-2.313-2.082-5.55-3.007-9.713-3.007-3.932 0-7.17.925-10.176 2.776-3.007 1.85-5.55 4.395-7.632 7.633L6.196 19.385C9.665 13.37 14.29 8.745 20.072 5.506 25.854 2.268 32.792.648 40.886.648c9.482 0 16.883 2.314 22.664 6.94 5.782 4.626 8.558 10.871 8.558 19.199 0 3.932-.463 7.17-1.62 10.177-1.156 3.007-2.543 5.32-4.162 7.402-1.62 2.082-3.7 4.395-6.244 6.94-3.007 3.007-5.32 5.782-6.707 7.864-1.388 2.082-2.082 4.626-2.082 7.633H32.792c.23-5.32 1.156-9.252 3.237-12.49zM33.947 98.03c-2.313-2.544-3.47-5.551-3.47-9.02 0-3.47 1.157-6.477 3.239-9.022 2.312-2.313 5.088-3.47 8.557-3.47 3.469 0 6.244 1.157 8.557 3.47 2.312 2.313 3.237 5.32 3.237 9.021 0 3.47-1.156 6.477-3.469 9.021-2.312 2.545-5.088 3.701-8.325 3.701-3.238 0-6.013-1.387-8.326-3.7z" fill="#FCEA10" stroke="#FCEA10" stroke-miterlimit="10"/><path d="M28.628 54.313c1.85-3.007 4.395-6.015 7.864-9.716 2.544-2.544 4.394-4.626 5.55-6.476 1.157-1.85 1.85-3.701 1.85-6.014 0-3.239-1.156-5.552-3.469-7.402-2.312-1.85-5.319-2.776-9.02-2.776-3.7 0-6.706.925-9.481 2.545-2.776 1.619-5.088 3.932-6.939 6.939L1.107 22.392C4.345 16.84 8.74 12.677 14.058 9.67c5.55-3.007 12.026-4.395 19.427-4.395 8.788 0 15.727 2.081 21.046 6.245 5.32 4.164 7.863 9.946 7.863 17.348 0 3.47-.462 6.477-1.619 9.253-.925 2.544-2.313 4.857-3.7 6.708-1.388 1.85-3.47 3.932-5.782 6.245-2.775 2.776-4.857 5.09-6.244 7.17-1.388 2.083-1.85 4.164-1.85 6.94H25.853c0-4.163.925-7.864 2.775-10.871zm-1.85 39.785c-2.081-2.313-3.237-5.089-3.237-8.327 0-3.238.925-6.014 3.006-8.096 2.081-2.082 4.625-3.238 7.863-3.238 3.238 0 5.782 1.156 7.863 3.238 2.082 2.082 3.007 4.858 3.007 8.096 0 3.238-1.156 6.014-3.238 8.327-2.081 2.313-4.625 3.47-7.863 3.47-2.775 0-5.32-1.157-7.4-3.47z" stroke="#3AAA35" stroke-width="1.5" stroke-miterlimit="10"/></svg>