<svg width="52" height="73" fill="none" xmlns="http://www.w3.org/2000/svg"><path d="M26.283 38.704c1.388-2.313 3.238-4.627 5.782-7.402 1.85-1.85 3.238-3.701 4.163-4.858.925-1.388 1.388-2.775 1.388-4.626 0-2.313-.925-4.395-2.544-5.783-1.62-1.388-3.932-2.082-6.707-2.082s-5.088.694-7.17 1.85c-2.081 1.157-3.931 3.008-5.319 5.321L5.47 14.184c2.313-4.163 5.55-7.401 9.713-9.714C19.345 2.157 24.202 1 29.752 1c6.476 0 11.795 1.62 15.727 4.858 3.931 3.238 6.013 7.633 6.013 13.416 0 2.775-.463 5.088-1.156 6.939-.694 2.082-1.62 3.7-2.776 5.089-1.156 1.388-2.544 3.007-4.394 4.857-2.081 2.082-3.7 3.933-4.625 5.32-.925 1.388-1.388 3.239-1.388 5.32H24.202c0-3.238.694-6.014 2.081-8.095zm-1.387 30.301c-1.62-1.619-2.313-3.932-2.313-6.245 0-2.544.694-4.626 2.313-6.245 1.619-1.62 3.469-2.545 6.013-2.545s4.394.925 6.013 2.545c1.619 1.619 2.313 3.7 2.313 6.245s-.694 4.626-2.313 6.245c-1.62 1.62-3.47 2.545-5.782 2.545-2.775 0-4.625-.694-6.244-2.544z" fill="#FCEA10" stroke="#FCEA10" stroke-miterlimit="10"/><path d="M21.195 38.704c1.157-2.082 3.007-4.164 5.55-6.708 1.851-1.85 3.008-3.239 3.933-4.627.925-1.156 1.156-2.544 1.156-4.163 0-2.313-.694-3.932-2.313-5.32-1.619-1.388-3.7-1.85-6.244-1.85-2.544 0-4.626.693-6.707 1.85-1.85 1.156-3.469 2.776-4.857 4.857L2 16.498c2.313-3.701 5.32-6.708 9.02-8.79 3.7-2.082 8.325-3.238 13.413-3.238 6.013 0 11.101 1.388 14.801 4.395 3.7 3.007 5.551 6.939 5.551 12.26 0 2.544-.462 4.625-1.156 6.476-.694 1.85-1.62 3.47-2.544 4.626-.925 1.388-2.313 2.776-3.932 4.395-2.081 1.85-3.469 3.701-4.394 4.858-.925 1.387-1.388 3.007-1.388 4.857H19.345c0-3.007.694-5.783 1.85-7.633zM19.808 66.46c-1.388-1.62-2.082-3.47-2.082-5.783s.694-4.163 2.082-5.782c1.387-1.62 3.238-2.314 5.55-2.314 2.313 0 4.163.694 5.55 2.314 1.389 1.619 2.082 3.47 2.082 5.782 0 2.314-.694 4.164-2.081 5.783-1.388 1.62-3.238 2.313-5.55 2.313-2.082 0-3.932-.925-5.551-2.313z" stroke="#3AAA35" stroke-width="1.5" stroke-miterlimit="10"/></svg>