<svg width="38" height="42" fill="none" xmlns="http://www.w3.org/2000/svg"><path d="M20.608 41.98c2.6-.37 4.879-3.083 6.313-7.09a30.866 30.866 0 00-6.313-.744v7.834zm4.153-.637a14.306 14.306 0 00.839-.27c.15-.05.3-.104.448-.16.126-.048.251-.1.377-.15l.432-.182a18.055 18.055 0 001.156-.565 18.212 18.212 0 001.504-.903 32.406 32.406 0 00.716-.51c.122-.093.247-.19.369-.287.108-.087.216-.172.323-.261.121-.1.237-.205.355-.31.103-.091.207-.182.308-.276.116-.109.23-.22.342-.332.098-.097.197-.192.293-.291l.053-.057a20.424 20.424 0 00-4.164-1.602 15.078 15.078 0 01-3.883 6.306l.148-.036c.13-.037.257-.077.384-.114zM37 25.622h-7.286a31.511 31.511 0 01-1.227 8.406 21.13 21.13 0 014.612 1.835 16.976 16.976 0 003.9-10.241zm-16.392-1.215h7.891a30.4 30.4 0 00-1.196-8.108 31.997 31.997 0 01-6.695.798v7.31zm0-16.359v7.834a30.88 30.88 0 006.313-.744c-1.434-4.007-3.713-6.72-6.313-7.09zm0 24.882a32.03 32.03 0 016.695.8 30.402 30.402 0 001.196-8.108h-7.891v7.309zm12.491-18.765A21.129 21.129 0 0128.487 16a31.511 31.511 0 011.227 8.406H37a16.981 16.981 0 00-3.901-10.241zm-.821-.923l-.052-.056c-.096-.099-.196-.195-.294-.291-.112-.111-.225-.224-.341-.332-.1-.094-.205-.182-.308-.276-.118-.104-.236-.21-.357-.31-.105-.089-.213-.174-.32-.259a13.187 13.187 0 00-.704-.534 14.894 14.894 0 00-1.125-.74 16.774 16.774 0 00-.763-.435c-.122-.06-.243-.127-.365-.188-.14-.07-.28-.138-.425-.205a13.294 13.294 0 00-.37-.169c-.144-.064-.29-.121-.435-.182-.125-.051-.25-.102-.376-.15a13.14 13.14 0 00-.447-.16 14.806 14.806 0 00-.84-.27c-.127-.037-.254-.075-.382-.108-.049-.014-.098-.024-.148-.037a15.079 15.079 0 013.884 6.306 20.394 20.394 0 004.168-1.604zM3 24.406h7.286c.027-2.844.44-5.672 1.226-8.406a21.105 21.105 0 01-4.611-1.835A16.977 16.977 0 003 24.406zM19.392 41.98v-7.834c-2.124.03-4.24.279-6.313.743 1.434 4.008 3.713 6.721 6.313 7.09zm0-16.358h-7.891c.03 2.744.433 5.471 1.196 8.108a31.987 31.987 0 016.695-.8v-7.308zm0-17.574c-2.6.37-4.88 3.083-6.313 7.09 2.073.465 4.189.714 6.313.744V8.048zm0 9.049a31.996 31.996 0 01-6.695-.798 30.385 30.385 0 00-1.196 8.108h7.891v-7.31zM15.77 8.54l-.149.035c-.128.035-.255.073-.383.11-.153.045-.304.09-.457.138-.13.042-.257.087-.383.13-.15.053-.298.105-.445.161-.127.049-.252.1-.378.151-.145.06-.29.122-.432.182a17.556 17.556 0 00-1.92.997c-.132.08-.263.162-.393.243a15.736 15.736 0 00-.728.494c-.113.081-.225.162-.336.244-.124.093-.243.19-.368.287-.108.087-.217.172-.323.262-.121.1-.237.204-.354.308-.104.092-.208.182-.31.278-.115.108-.228.22-.34.33-.098.097-.198.193-.294.292l-.053.058a20.4 20.4 0 004.163 1.602A15.072 15.072 0 0115.77 8.54zM8.068 37.133c.113.11.225.223.341.331.101.094.205.183.308.276.118.105.236.21.357.31.105.089.212.174.32.26.121.098.243.196.371.29.11.083.221.162.332.244.127.091.256.182.385.27.114.076.229.15.344.225a15.214 15.214 0 00.751.454c.136.078.272.153.41.226.12.061.242.127.364.188a16.419 16.419 0 00.795.374c.145.065.29.122.435.183.125.05.25.101.376.15.148.056.297.109.447.16a13.934 13.934 0 00.84.27c.127.037.254.074.382.108.049.014.099.024.148.037a15.083 15.083 0 01-3.884-6.306c-1.442.38-2.838.918-4.163 1.603l.052.056c.091.099.19.194.289.29zm-1.167-1.27a21.135 21.135 0 014.611-1.835 31.527 31.527 0 01-1.226-8.406H3a16.98 16.98 0 003.901 10.241z" fill="#3CC860"/></svg>